<svg width="430" height="932" viewBox="0 0 430 932" fill="none" xmlns="http://www.w3.org/2000/svg">
<path d="M-0.00232697 0.0020752H429.998V932.002H-0.00232697V0.0020752Z" fill="#2AA5FD" fill-opacity="0.6"/>
<path d="M414.315 1001.78C378.177 942.089 358.974 904.066 289.067 798.477C232.676 713.304 210.293 683.751 168.526 694.892C113.836 709.48 131.717 845.366 68.0845 836.228C15.3521 828.656 64.3569 419.504 153.143 432.254C247.684 445.831 343.392 681.245 407.528 815.489C434.151 871.213 473.049 971.738 497.584 1041.68C538.023 1156.94 468.105 1090.63 414.315 1001.78Z" fill="#2AB1FD"/>
<path d="M471 419C473.586 464.69 347.07 787.818 278.495 870.5C212.848 949.653 139.855 1010.44 37.495 1020C-121.512 1034.86 -111.505 759.5 -59.5054 732C8.77902 695.887 89.6226 833.049 163.5 762.5C219 709.5 312.105 617.5 346 564.5C373.5 521.5 465.974 330.19 471 419Z" fill="#2A72FD"/>
<path d="M-3 631C-102.5 663.5 209.5 309.5 198.535 257.999C183.483 187.303 99.98 217.999 66.5351 217.999C-54.4646 217.999 -62.6277 117.952 -62.6277 87.9522C-62.6275 -63 407.285 -73.4041 535.554 23.5C630.978 95.5905 395 330.933 370 357.5C314.009 417 54.5 612.219 -3 631Z" fill="#2A8BFD"/>
<path d="M585.122 151.406C507.72 225.906 419.585 183.733 312.183 185.598C209.364 187.384 123.786 234.571 49.8288 163.161C-65.0584 52.2333 111.872 -154.96 269.311 -182.049C446.128 -212.471 714.397 26.9782 585.122 151.406Z" fill="#2A7FFD" fill-opacity="0.68"/>
<path d="M626.256 92.9086C548.854 167.409 460.719 125.236 353.316 127.101C250.498 128.887 164.92 176.073 90.9622 104.664C-23.925 -6.26395 153.005 -213.458 310.444 -240.546C487.262 -270.968 755.53 -31.5189 626.256 92.9086Z" fill="#2AB1FD" fill-opacity="0.6"/>
<path d="M-0.00232697 0.0020752H429.998V932.002H-0.00232697V0.0020752Z" stroke="#86FFE2" stroke-opacity="0.6"/>
<path d="M414.315 1001.78C378.177 942.089 358.974 904.066 289.067 798.477C232.676 713.304 210.293 683.751 168.526 694.892C113.836 709.48 131.717 845.366 68.0845 836.228C15.3521 828.656 64.3569 419.504 153.143 432.254C247.684 445.831 343.392 681.245 407.528 815.489C434.151 871.213 473.049 971.738 497.584 1041.68C538.023 1156.94 468.105 1090.63 414.315 1001.78Z" stroke="#86FFE2" stroke-opacity="0.6"/>
<path d="M471 419C473.586 464.69 347.07 787.818 278.495 870.5C212.848 949.653 139.855 1010.44 37.495 1020C-121.512 1034.86 -111.505 759.5 -59.5054 732C8.77902 695.887 89.6226 833.049 163.5 762.5C219 709.5 312.105 617.5 346 564.5C373.5 521.5 465.974 330.19 471 419Z" stroke="#86FFE2" stroke-opacity="0.6"/>
<path d="M-3 631C-102.5 663.5 209.5 309.5 198.535 257.999C183.483 187.303 99.98 217.999 66.5351 217.999C-54.4646 217.999 -62.6277 117.952 -62.6277 87.9522C-62.6275 -63 407.285 -73.4041 535.554 23.5C630.978 95.5905 395 330.933 370 357.5C314.009 417 54.5 612.219 -3 631Z" stroke="#86FFE2" stroke-opacity="0.6"/>
<path d="M545.127 260.981C460.701 342.303 364.42 296.116 247.153 298.03C134.891 299.862 41.5059 351.327 -39.3287 273.208C-164.899 151.857 28.0458 -74.3519 199.917 -103.771C392.943 -136.811 686.134 125.161 545.127 260.981Z" stroke="#86FFE2" stroke-opacity="0.6"/>
<path d="M585.122 151.406C507.72 225.906 419.585 183.733 312.183 185.598C209.364 187.384 123.786 234.571 49.8288 163.161C-65.0584 52.2333 111.872 -154.96 269.311 -182.049C446.128 -212.471 714.397 26.9782 585.122 151.406Z" stroke="#86FFE2" stroke-opacity="0.6"/>
<path d="M626.256 92.9086C548.854 167.409 460.719 125.236 353.316 127.101C250.498 128.887 164.92 176.073 90.9622 104.664C-23.925 -6.26395 153.005 -213.458 310.444 -240.546C487.262 -270.968 755.53 -31.5189 626.256 92.9086Z" stroke="#86FFE2" stroke-opacity="0.6"/>
</svg>